<?xml version="1.0" standalone="no"?>
<!DOCTYPE svg PUBLIC "-//W3C//DTD SVG 20010904//EN" "http://www.w3.org/TR/2001/REC-SVG-20010904/DTD/svg10.dtd">
<svg version="1.0" xmlns="http://www.w3.org/2000/svg"
  width="700.000000pt" height="700.000000pt" viewBox="0 0 700.000000 700.000000"
  preserveAspectRatio="xMidYMid meet">
  <metadata> Created by potrace 1.14, written by Peter Selinger 2001-2017 </metadata>
  <g transform="translate(0.000000,700.000000) scale(0.100000,-0.100000)"
    fill="#000000" stroke="none">
    <path
      d="M3447 6344 c-1 -1 -51 -4 -112 -8 -94 -5 -199 -19 -320 -41 -64 -12
-194 -48 -280 -77 -586 -196 -1067 -605 -1363 -1158 -98 -184 -205 -482 -228
-635 -3 -16 -7 -41 -10 -55 -25 -109 -38 -267 -38 -440 0 -116 10 -307 19
-362 2 -12 11 -72 20 -133 38 -252 134 -572 245 -820 193 -430 492 -863 845
-1225 178 -182 309 -303 496 -455 239 -195 630 -462 713 -486 93 -28 146 -9
354 127 164 108 461 324 518 379 6 5 35 30 65 55 29 25 76 65 104 90 27 25 55
50 61 55 111 96 364 362 489 515 87 105 84 102 139 175 25 33 49 65 53 70 46
59 243 371 264 418 5 12 25 51 44 87 92 171 225 503 260 650 2 8 11 41 20 74
22 82 63 290 70 356 4 30 8 66 10 79 24 147 23 591 0 681 -2 8 -7 35 -10 60
-42 297 -180 655 -359 930 -293 451 -744 800 -1253 969 -93 31 -224 66 -283
76 -19 3 -42 8 -50 10 -15 4 -69 13 -120 20 -57 8 -357 24 -363 19z m303 -454
c308 -42 585 -145 825 -306 121 -81 125 -84 195 -144 349 -300 571 -678 665
-1136 22 -106 32 -257 29 -419 -2 -99 -6 -196 -8 -215 -8 -69 -18 -143 -22
-164 -2 -12 -9 -48 -15 -81 -77 -430 -299 -913 -612 -1327 -70 -92 -71 -93
-168 -208 -101 -119 -333 -357 -434 -445 -216 -189 -406 -336 -588 -456 l-118
-79 -107 72 c-160 107 -364 261 -477 359 -16 15 -55 48 -85 74 -128 111 -457
445 -483 491 -4 8 -20 26 -33 42 -39 41 -194 248 -251 332 -285 430 -453 867
-514 1345 -17 131 -19 422 -3 545 65 528 331 997 747 1321 301 234 659 375
1031 405 39 4 72 7 73 8 8 7 282 -4 353 -14z" />
    <path
      d="M3335 5019 c-22 -4 -55 -10 -73 -13 -54 -10 -182 -56 -247 -88 -206
-104 -389 -285 -487 -483 -65 -131 -89 -205 -108 -330 -18 -117 -15 -282 6
-379 3 -12 7 -30 9 -42 25 -116 102 -282 183 -390 184 -249 450 -404 752 -441
275 -34 561 43 782 209 279 211 439 525 439 863 1 546 -374 996 -907 1090 -91
16 -275 18 -349 4z m357 -454 c207 -67 371 -230 433 -430 30 -99 38 -216 22
-315 -26 -152 -121 -305 -251 -404 -264 -201 -636 -171 -869 70 -69 70 -113
144 -149 251 -51 148 -42 322 26 474 71 162 235 303 407 353 122 36 273 36
381 1z" />
  </g>
</svg>
